<svg width="28" height="29" viewBox="0 0 28 29" fill="none" xmlns="http://www.w3.org/2000/svg">
<path fill-rule="evenodd" clip-rule="evenodd" d="M21.3333 13.0606H6.66667C2.98467 13.0606 0 10.2116 0 6.69696C0 3.18233 2.98467 0.333328 6.66667 0.333328H21.3333C25.0147 0.333328 28 3.18233 28 6.69696C28 10.2116 25.0147 13.0606 21.3333 13.0606ZM21.3333 1.60606H6.66667C3.72133 1.60606 1.33333 3.88551 1.33333 6.69696C1.33333 9.50842 3.72133 11.7879 6.66667 11.7879H21.3333C24.2787 11.7879 26.6667 9.50842 26.6667 6.69696C26.6667 3.88551 24.2787 1.60606 21.3333 1.60606ZM6.66667 10.5151C4.458 10.5151 2.66667 8.80587 2.66667 6.69696C2.66667 4.58869 4.458 2.87878 6.66667 2.87878C8.87533 2.87878 10.6667 4.58869 10.6667 6.69696C10.6667 8.80587 8.87533 10.5151 6.66667 10.5151ZM6.66667 4.15151C5.194 4.15151 4 5.29124 4 6.69696C4 8.10269 5.194 9.24242 6.66667 9.24242C8.13933 9.24242 9.33333 8.10269 9.33333 6.69696C9.33333 5.29124 8.13933 4.15151 6.66667 4.15151ZM6.66667 15.6061H21.3333C25.0147 15.6061 28 18.4557 28 21.9697C28 25.4837 25.0147 28.3333 21.3333 28.3333H6.66667C2.98467 28.3333 0 25.4837 0 21.9697C0 18.4557 2.98467 15.6061 6.66667 15.6061ZM6.66667 27.0606H21.3333C24.2787 27.0606 26.6667 24.7811 26.6667 21.9697C26.6667 19.1582 24.2787 16.8788 21.3333 16.8788H6.66667C3.72133 16.8788 1.33333 19.1582 1.33333 21.9697C1.33333 24.7811 3.72133 27.0606 6.66667 27.0606ZM21.3333 18.1515C23.542 18.1515 25.3333 19.8614 25.3333 21.9697C25.3333 24.078 23.542 25.7879 21.3333 25.7879C19.1247 25.7879 17.3333 24.078 17.3333 21.9697C17.3333 19.8614 19.1247 18.1515 21.3333 18.1515ZM21.3333 24.5151C22.806 24.5151 24 23.3754 24 21.9697C24 20.564 22.806 19.4242 21.3333 19.4242C19.8607 19.4242 18.6667 20.564 18.6667 21.9697C18.6667 23.3754 19.8607 24.5151 21.3333 24.5151Z" fill="#045972"/>
</svg>
