<svg width="38" height="38" viewBox="0 0 38 38" fill="none" xmlns="http://www.w3.org/2000/svg">
<path d="M36.9944 35.1306L28.4631 26.5994H28.3713C31.0008 23.4989 32.3296 19.5018 32.0798 15.4441C31.8299 11.3864 30.0207 7.58243 27.0307 4.828C24.0406 2.07358 20.1013 0.582028 16.0367 0.665361C11.9722 0.748694 8.0973 2.40045 5.22263 5.27512C2.34796 8.14979 0.696204 12.0247 0.612871 16.0892C0.529538 20.1537 2.02109 24.0931 4.77551 27.0831C7.52994 30.0732 11.3339 31.8824 15.3916 32.1323C19.4493 32.3821 23.4464 31.0533 26.5469 28.4238C26.5469 28.4238 26.5469 28.4894 26.5469 28.5156L35.0781 37.0469C35.2002 37.1699 35.3453 37.2675 35.5053 37.3342C35.6652 37.4008 35.8367 37.4351 36.01 37.4351C36.1833 37.4351 36.3548 37.4008 36.5148 37.3342C36.6747 37.2675 36.8199 37.1699 36.9419 37.0469C37.0765 36.9277 37.1851 36.7822 37.2611 36.6194C37.3372 36.4565 37.3789 36.2798 37.3838 36.1001C37.3888 35.9205 37.3567 35.7417 37.2897 35.575C37.2228 35.4082 37.1222 35.257 36.9944 35.1306ZM16.375 29.5C13.7791 29.5 11.2415 28.7302 9.08315 27.288C6.92476 25.8458 5.24249 23.796 4.24909 21.3977C3.25569 18.9994 2.99577 16.3604 3.5022 13.8144C4.00864 11.2684 5.25867 8.92979 7.09423 7.09422C8.9298 5.25866 11.2685 4.00863 13.8145 3.50219C16.3605 2.99576 18.9995 3.25568 21.3977 4.24908C23.796 5.24248 25.8459 6.92475 27.2881 9.08314C28.7302 11.2415 29.5 13.7791 29.5 16.375C29.5 18.0986 29.1605 19.8053 28.5009 21.3977C27.8413 22.9901 26.8746 24.437 25.6558 25.6558C24.437 26.8745 22.9901 27.8413 21.3977 28.5009C19.8053 29.1605 18.0986 29.5 16.375 29.5Z" fill="#045972"/>
</svg>
