<svg width="42" height="28" viewBox="0 0 42 28" fill="none" xmlns="http://www.w3.org/2000/svg">
<path fill-rule="evenodd" clip-rule="evenodd" d="M41.9 22.971C41.9 22.982 41.906 22.99 41.906 23C41.906 23.005 41.903 23.01 41.903 23.016C41.904 23.021 41.906 23.026 41.906 23.032C41.906 23.584 41.459 24.032 40.906 24.032C40.921 24.031 32 24 32 24C31.447 24 31 23.552 31 23C31 22.447 31.447 22 32 22H39.946C39.965 21.666 40 21.338 40 21C40 10.507 31.493 2 21 2C10.507 2 2 10.507 2 21C2 21.338 2.035 21.666 2.053 22H10C10.553 22 11 22.447 11 23C11 23.552 10.553 24 10 24C10 24 1.08 24.031 1.094 24.031C0.541 24.031 0.0940001 23.583 0.0940001 23.031C0.0940001 23.025 0.0959999 23.02 0.0969999 23.015C0.0969999 23.009 0.0940001 23.004 0.0940001 22.999C0.0940001 22.988 0.0999999 22.98 0.0999999 22.971C0.0389999 22.321 0 21.665 0 21C0 9.401 9.402 0 21 0C32.598 0 42 9.401 42 21C42 21.665 41.961 22.321 41.9 22.971ZM14.523 11.128C14.916 10.912 15.388 10.984 15.712 11.261L15.662 11.178C24.436 17.598 26.239 20.551 26.272 20.606C27.705 22.963 26.853 25.977 24.373 27.337C21.893 28.697 18.72 27.89 17.288 25.533C17.253 25.48 15.464 22.519 13.997 12.091L14.048 12.173C13.959 11.769 14.131 11.343 14.523 11.128ZM19.086 24.549C19.641 25.46 20.675 26.027 21.785 26.027C22.327 26.027 22.864 25.89 23.337 25.63C24.057 25.235 24.572 24.599 24.787 23.836C25.003 23.072 24.892 22.276 24.484 21.604C24.467 21.579 22.912 19.218 16.422 14.256C17.703 22.071 19.075 24.529 19.086 24.549Z" fill="#F39804"/>
</svg>
