<svg width="40" height="40" viewBox="0 0 40 40" fill="none" xmlns="http://www.w3.org/2000/svg">
<path d="M20 39.256L39.0472 32L28.5472 28L39.0472 24L28.5472 20L39.0472 16L28.5472 12L39.0472 8.00002L20 0.744019L0.95282 8.00002L11.4528 12L0.95282 16L11.4528 20L0.95282 24L11.4528 28L0.95282 32L20 39.256ZM5.44722 8.00002L20 2.45602L34.5528 8.00002L26.3 11.144L20 13.544L13.7 11.144L5.44722 8.00002ZM5.44722 16L13.7 12.856L20 15.256L26.3 12.856L34.5528 16L26.3 19.144L20 21.544L13.7 19.144L5.44722 16ZM5.44722 24L13.7 20.856L20 23.256L26.3 20.856L34.5528 24L26.3 27.144L20 29.544L13.7 27.144L5.44722 24ZM26.3 28.856L34.5528 32L20 37.544L5.44722 32L13.7 28.856L20 31.256L26.3 28.856Z" fill="#F39804"/>
</svg>
