<svg width="36" height="30" viewBox="0 0 36 30" fill="none" xmlns="http://www.w3.org/2000/svg">
<path d="M13.8813 22.325C14.7916 24.2193 16.2106 25.8233 17.9798 26.9579C19.7489 28.0924 21.7987 28.7129 23.9 28.75H33.1875C33.1875 28.75 30.4438 27.5 32.625 23.8312C33.6318 22.2609 34.21 20.4543 34.3022 18.5912C34.3944 16.7281 33.9973 14.8733 33.1504 13.2112C32.3036 11.5492 31.0365 10.1377 29.4751 9.11707C27.9136 8.09649 26.1123 7.50236 24.25 7.39374C23.5615 7.35515 22.8709 7.38235 22.1875 7.47499" stroke="#F39804" stroke-width="2" stroke-linecap="round" stroke-linejoin="round"/>
<path d="M3.37498 17.5813C2.46111 16.1562 1.89883 14.5345 1.73446 12.8495C1.57009 11.1646 1.80833 9.46479 2.42955 7.88999C3.05078 6.31518 4.03722 4.91048 5.30764 3.79157C6.57806 2.67266 8.09611 1.87154 9.73676 1.4542C11.3774 1.03687 13.0938 1.01524 14.7444 1.39112C16.3951 1.76699 17.9328 2.52961 19.231 3.61617C20.5292 4.70272 21.5507 6.08213 22.2114 7.64078C22.8721 9.19944 23.1531 10.8927 23.0312 12.5813C22.6437 18.0625 17.575 22.5 12.1 22.5H2.81248C2.81248 22.5 5.55623 21.25 3.37498 17.5813Z" stroke="#F39804" stroke-width="2" stroke-linecap="round" stroke-linejoin="round"/>
<path d="M8.625 10.625H16.125" stroke="#F39804" stroke-width="2" stroke-linecap="round" stroke-linejoin="round"/>
<path d="M8.625 13.75H16.125" stroke="#F39804" stroke-width="2" stroke-linecap="round" stroke-linejoin="round"/>
</svg>
