<svg width="32" height="32" viewBox="0 0 32 32" fill="none" xmlns="http://www.w3.org/2000/svg">
<path d="M16 31C24.2843 31 31 24.2843 31 16C31 7.71573 24.2843 1 16 1C7.71573 1 1 7.71573 1 16C1 24.2843 7.71573 31 16 31Z" stroke="#F39804" stroke-width="2" stroke-miterlimit="10"/>
<path d="M9.75 14.125C11.1307 14.125 12.25 13.0057 12.25 11.625C12.25 10.2443 11.1307 9.125 9.75 9.125C8.36929 9.125 7.25 10.2443 7.25 11.625C7.25 13.0057 8.36929 14.125 9.75 14.125Z" stroke="#F39804" stroke-width="2" stroke-miterlimit="10"/>
<path d="M22.25 14.125C23.6307 14.125 24.75 13.0057 24.75 11.625C24.75 10.2443 23.6307 9.125 22.25 9.125C20.8693 9.125 19.75 10.2443 19.75 11.625C19.75 13.0057 20.8693 14.125 22.25 14.125Z" stroke="#F39804" stroke-width="2" stroke-miterlimit="10"/>
<path d="M9.75 19.3375C10.1313 22.4625 12.7875 24.2938 16 24.2938C19.2125 24.2938 21.875 22.4875 22.25 19.3375" stroke="#F39804" stroke-width="2" stroke-linecap="round" stroke-linejoin="round"/>
</svg>
