<svg width="30" height="36" viewBox="0 0 30 36" fill="none" xmlns="http://www.w3.org/2000/svg">
<path fill-rule="evenodd" clip-rule="evenodd" d="M26.155 10.4967C28.5375 13.1525 30 16.6508 30 20.5C30 28.7842 23.2842 35.5 15 35.5C6.71583 35.5 0 28.7842 0 20.5C0 13.0692 5.40833 6.9175 12.5 5.725V2.16667H10.8333C10.3725 2.16667 10 1.79333 10 1.33333C10 0.873333 10.3725 0.5 10.8333 0.5H19.1667C19.6275 0.5 20 0.873333 20 1.33333C20 1.79333 19.6275 2.16667 19.1667 2.16667H17.5V5.72083C20.3558 6.205 22.9367 7.49083 25.0042 9.34583L26.945 7.405C27.2625 7.0875 27.7775 7.0875 28.0958 7.405C28.4133 7.7225 28.4133 8.23833 28.0958 8.55583L26.155 10.4967ZM15.8333 2.16667H14.1667V5.5425C14.4442 5.52667 14.7183 5.5 15 5.5C15.2817 5.5 15.5558 5.52417 15.8333 5.53917V2.16667ZM15 7.16667C7.63667 7.16667 1.66667 13.1358 1.66667 20.5C1.66667 27.8642 7.63667 33.8333 15 33.8333C22.3642 33.8333 28.3333 27.8642 28.3333 20.5C28.3333 13.1367 22.3642 7.16667 15 7.16667ZM15 23.8333C13.1592 23.8333 11.6667 22.3408 11.6667 20.5C11.6667 19.8758 11.8492 19.2983 12.1483 18.7992L7.7375 14.3892C7.42 14.0717 7.42 13.5558 7.7375 13.2383C8.05583 12.9208 8.57083 12.9208 8.88833 13.2383L13.2992 17.6483C13.7992 17.3492 14.3758 17.1667 15 17.1667C16.8408 17.1667 18.3333 18.6592 18.3333 20.5C18.3333 22.3408 16.8408 23.8333 15 23.8333ZM15 18.8333C14.08 18.8333 13.3333 19.58 13.3333 20.5C13.3333 21.42 14.08 22.1667 15 22.1667C15.92 22.1667 16.6667 21.42 16.6667 20.5C16.6667 19.58 15.92 18.8333 15 18.8333Z" fill="#F39804"/>
</svg>
