<?xml version="1.0" encoding="UTF-8" standalone="no"?>
<!DOCTYPE svg PUBLIC "-//W3C//DTD SVG 1.1//EN" "http://www.w3.org/Graphics/SVG/1.1/DTD/svg11.dtd">
<svg width="100%" height="100%" viewBox="0 0 42 46" version="1.1" xmlns="http://www.w3.org/2000/svg" xmlns:xlink="http://www.w3.org/1999/xlink" xml:space="preserve" xmlns:serif="http://www.serif.com/" style="fill-rule:evenodd;clip-rule:evenodd;stroke-linejoin:round;stroke-miterlimit:2;">
    <g transform="matrix(0.511613,-0.511613,0.511613,0.511613,-2.53231,23.756)">
        <path d="M41.602,22.775L18.806,45.571C18.774,45.619 18.753,45.673 18.711,45.715C18.514,45.911 18.254,46.002 17.996,45.996C17.738,46.002 17.478,45.911 17.281,45.715C17.239,45.673 17.219,45.619 17.186,45.571L0.425,28.81C0.377,28.778 0.324,28.757 0.281,28.715C0.084,28.518 -0.005,28.258 0,28C-0.006,27.742 0.084,27.482 0.281,27.285C0.324,27.243 0.377,27.223 0.425,27.19L23.221,4.395C23.404,4.16 23.676,4 23.996,4L28.052,4C28.185,2.498 28.798,1.18 29.722,0.317L29.738,0.335C29.934,0.128 30.201,0 30.496,0C31.088,0 31.568,0.512 31.568,1.143C31.568,1.518 31.388,1.834 31.127,2.042C30.648,2.484 30.307,3.181 30.193,4L34.996,4C35.316,4 35.59,4.16 35.771,4.395L41.601,10.225C41.835,10.408 41.996,10.681 41.996,11.001L41.996,22C41.996,22.32 41.836,22.593 41.602,22.775ZM31.254,15.666C31.061,15.872 30.793,16 30.496,16C29.904,16 29.426,15.488 29.426,14.857C29.426,14.482 29.606,14.166 29.867,13.957C30.115,13.728 30.318,13.42 30.484,13.074C29.629,13.302 28.996,14.074 28.996,14.999C28.996,16.103 29.892,16.999 30.996,16.999C32.101,16.999 32.996,16.103 32.996,14.999C32.996,14.526 32.826,14.098 32.551,13.755C31.936,15.302 31.254,15.666 31.254,15.666ZM39.996,11.381L34.615,6L30.402,6C30.576,6.444 30.826,6.822 31.127,7.1C31.168,7.133 31.219,7.153 31.254,7.192L31.272,7.174C32.313,8.147 32.997,9.682 32.997,11.428C32.997,11.47 32.987,11.507 32.985,11.548C34.182,12.239 34.997,13.518 34.997,15C34.997,17.209 33.206,19 30.997,19C28.788,19 26.997,17.209 26.997,15C26.997,12.853 28.692,11.115 30.817,11.018C30.727,10.13 30.376,9.37 29.868,8.9C29.827,8.867 29.776,8.847 29.739,8.808L29.723,8.826C28.979,8.131 28.43,7.141 28.17,6L24.377,6L2.377,28L17.996,43.619L39.996,21.619L39.996,11.381ZM11.282,26.285C11.664,25.904 12.282,25.904 12.663,26.285L19.712,33.334C20.093,33.715 20.093,34.333 19.712,34.715C19.331,35.096 18.712,35.096 18.331,34.715L11.282,27.666C10.901,27.285 10.901,26.667 11.282,26.285ZM15.282,22.285C15.664,21.904 16.282,21.904 16.663,22.285L23.711,29.334C24.092,29.715 24.092,30.333 23.711,30.715C23.33,31.096 22.711,31.096 22.33,30.715L15.282,23.666C14.901,23.285 14.901,22.667 15.282,22.285Z" style="fill:rgb(243,152,4);"/>
    </g>
</svg>
