<svg width="46" height="38" viewBox="0 0 46 38" fill="none" xmlns="http://www.w3.org/2000/svg">
<path fill-rule="evenodd" clip-rule="evenodd" d="M41 38H5C2.238 38 0 35.762 0 33V10C0 9.448 0.447 9 1 9H4V4C4 1.791 5.791 0 8 0H18C20.209 0 22 1.791 22 4V5H45C45.553 5 46 5.448 46 6V33C46 35.762 43.762 38 41 38ZM2 11V33C2 34.657 3.344 36 5 36H37.022C36.39 35.162 36 34.131 36 33V11H2ZM44 7H20V4C20 2.896 19.104 2 18 2H8C6.896 2 6 2.896 6 4V9H37C37.278 9 37.529 9.114 37.71 9.298C37.889 9.479 38 9.726 38 10V33C38 34.657 39.343 36 41 36C42.657 36 44 34.657 44 33V7Z" fill="#045972"/>
</svg>
