<svg width="22" height="30" viewBox="0 0 22 30" fill="none" xmlns="http://www.w3.org/2000/svg">
<path d="M4 13H2.125V8.99999C2.125 4.12499 6.12501 0.125 11 0.125C15.5 0.125 19.25 3.4375 19.8125 7.875L18 8.12499C17.5625 4.62499 14.5625 2 11 2C7.12501 2 4 5.12499 4 8.99999V13Z" fill="#F39804"/>
<path d="M18.9375 29.875H3.00001C1.37501 29.875 0 28.5625 0 26.875V14.9375C0 13.3125 1.31251 11.9375 3.00001 11.9375H18.9375C20.5625 11.9375 21.9375 13.25 21.9375 14.9375V26.875C21.9375 28.5625 20.625 29.875 18.9375 29.875ZM3.0625 14C2.5 14 2.06251 14.4375 2.06251 15V26.9375C2.06251 27.5 2.5 27.9375 3.0625 27.9375H19C19.5625 27.9375 20 27.5 20 26.9375V15C20 14.4375 19.5625 14 19 14H3.0625Z" fill="#F39804"/>
<path d="M13 17.9375C13 19.0625 12.125 19.9375 11 19.9375C9.87501 19.9375 9 19.0625 9 17.9375C9 16.8125 9.87501 15.9375 11 15.9375C12.125 15.9375 13 16.875 13 17.9375Z" fill="#F39804"/>
<path d="M11.5 17.9375H10.5L9.5 23.9375H12.5L11.5 17.9375Z" fill="#F39804"/>
</svg>
